<?xml version="1.0" encoding="UTF-8" standalone="no"?>
<!DOCTYPE svg PUBLIC "-//W3C//DTD SVG 1.0//EN" "http://www.w3.org/TR/2001/PR-SVG-20010719/DTD/svg10.dtd">
<svg width="18cm" height="13cm" viewBox="163 83 353 256" xmlns="http://www.w3.org/2000/svg" xmlns:xlink="http://www.w3.org/1999/xlink">
  <defs/>
  <g id="Background">
    <g>
      <rect style="fill: #00ff00; fill-opacity: 1; stroke-opacity: 1; stroke-width: 2; stroke: #000000" x="164.9" y="84.1" width="350" height="254" rx="0" ry="0"/>
      <polygon style="fill: #00ff00; fill-opacity: 1; stroke-opacity: 1; stroke-width: 2; stroke: #000000" fill-rule="evenodd" points="189.992,225.1 272.365,225.1 257.807,265.1 175.433,265.1 "/>
      <text font-size="12.8" style="fill: #000000; fill-opacity: 1; stroke: none;text-anchor:middle;font-family:sans-serif;font-style:normal;font-weight:normal" x="223.899" y="249">
        <tspan x="223.899" y="249">Pop</tspan>
      </text>
      <rect style="fill: #00ff00; fill-opacity: 1; stroke-opacity: 1; stroke-width: 2; stroke: #000000" x="196.024" y="147.1" width="217.75" height="38" rx="0" ry="0"/>
      <text font-size="12.8" style="fill: #000000; fill-opacity: 1; stroke: none;text-anchor:middle;font-family:sans-serif;font-style:normal;font-weight:normal" x="304.899" y="170">
        <tspan x="304.899" y="170">Process&lt;Service&gt; ( Message )</tspan>
      </text>
      <line style="fill: none; stroke-opacity: 1; stroke-width: 2; stroke: #000000" x1="245.425" y1="224.106" x2="276.527" y2="193.771"/>
      <polygon style="fill: #000000; fill-opacity: 1; stroke-opacity: 1; stroke-width: 2; stroke: #000000" fill-rule="evenodd" points="280.018,197.351 283.686,186.789 273.036,190.192 "/>
      <polygon style="fill: #00ff00; fill-opacity: 1; stroke-opacity: 1; stroke-width: 2; stroke: #000000" fill-rule="evenodd" points="425.043,225.1 497.316,225.1 482.758,265.1 410.484,265.1 "/>
      <text font-size="12.8" style="fill: #000000; fill-opacity: 1; stroke: none;text-anchor:middle;font-family:sans-serif;font-style:normal;font-weight:normal" x="453.9" y="249">
        <tspan x="453.9" y="249">Post</tspan>
      </text>
      <polygon style="fill: #00ff00; fill-opacity: 1; stroke-opacity: 1; stroke-width: 2; stroke: #000000" fill-rule="evenodd" points="335.832,217.1 374.763,244.316 335.832,271.532 296.9,244.316 "/>
      <text font-size="12.8" style="fill: #000000; fill-opacity: 1; stroke: none;text-anchor:middle;font-family:sans-serif;font-style:normal;font-weight:normal" x="335.832" y="248.216">
        <tspan x="335.832" y="248.216">?</tspan>
      </text>
      <line style="fill: none; stroke-opacity: 1; stroke-width: 2; stroke: #000000" x1="312.783" y1="186.036" x2="323.049" y2="211.993"/>
      <polygon style="fill: #000000; fill-opacity: 1; stroke-opacity: 1; stroke-width: 2; stroke: #000000" fill-rule="evenodd" points="318.399,213.832 326.726,221.292 327.698,210.154 "/>
      <line style="fill: none; stroke-opacity: 1; stroke-width: 2; stroke: #000000" x1="375.764" y1="244.581" x2="406.236" y2="244.783"/>
      <polygon style="fill: #000000; fill-opacity: 1; stroke-opacity: 1; stroke-width: 2; stroke: #000000" fill-rule="evenodd" points="406.203,249.783 416.236,244.85 406.269,239.784 "/>
      <line style="fill: none; stroke-opacity: 1; stroke-width: 2; stroke: #000000" x1="295.9" y1="244.596" x2="276.823" y2="244.729"/>
      <polygon style="fill: #000000; fill-opacity: 1; stroke-opacity: 1; stroke-width: 2; stroke: #000000" fill-rule="evenodd" points="276.788,239.729 266.823,244.799 276.858,249.729 "/>
      <polygon style="fill: #00ff00; fill-opacity: 1; stroke-opacity: 1; stroke-width: 2; stroke: #000000" fill-rule="evenodd" points="201.9,101.1 400.4,101.1 412.4,113.1 412.4,135.1 201.9,135.1 "/>
      <polyline style="fill: none; stroke-opacity: 1; stroke-width: 1; stroke: #000000" points="400.4,101.1 400.4,113.1 412.4,113.1 "/>
      <text font-size="12.8" style="fill: #000000; fill-opacity: 1; stroke: none;text-anchor:start;font-family:monospace;font-style:normal;font-weight:normal" x="208.9" y="126">
        <tspan x="208.9" y="126">Event Loop / Green Thread</tspan>
      </text>
      <rect style="fill: #00ff00; fill-opacity: 1; stroke-opacity: 1; stroke-width: 2; stroke: #000000" x="190.9" y="282.1" width="288.05" height="36"/>
      <text font-size="12.8" style="fill: #000000; fill-opacity: 1; stroke: none;text-anchor:middle;font-family:sans-serif;font-style:normal;font-weight:normal" x="334.925" y="304">
        <tspan x="334.925" y="304">Service can handle thousands of contexts</tspan>
      </text>
      <line style="fill: none; stroke-opacity: 1; stroke-width: 1; stroke: #000000" x1="200.9" y1="307.05" x2="468.95" y2="307.05"/>
    </g>
  </g>
</svg>
