<?xml version="1.0" encoding="UTF-8" standalone="no"?>
<!DOCTYPE svg PUBLIC "-//W3C//DTD SVG 1.0//EN" "http://www.w3.org/TR/2001/PR-SVG-20010719/DTD/svg10.dtd">
<svg width="50cm" height="53cm" viewBox="151 -272 989 1058" xmlns="http://www.w3.org/2000/svg" xmlns:xlink="http://www.w3.org/1999/xlink">
  <defs/>
  <g id="Background">
    <g>
      <rect style="fill: #ffa500; fill-opacity: 1; stroke-opacity: 1; stroke-width: 2; stroke: #000000" x="152.167" y="-195.583" width="477.333" height="977.333" rx="0" ry="0"/>
      <rect style="fill: #ffff00; fill-opacity: 1; stroke-opacity: 1; stroke-width: 2; stroke: #000000" x="202" y="-143" width="400" height="901.75" rx="0" ry="0"/>
      <rect style="fill: #00ff00; fill-opacity: 1; stroke-opacity: 1; stroke-width: 2; stroke: #000000" x="226" y="-85" width="350" height="254" rx="0" ry="0"/>
      <g>
        <polygon style="fill: #00ff00; fill-opacity: 1; stroke-opacity: 1; stroke-width: 2; stroke: #000000" fill-rule="evenodd" points="259.768,56 324.791,56 310.232,96 245.209,96 "/>
        <text font-size="12.7998" style="fill: #000000; fill-opacity: 1; stroke: none;text-anchor:middle;font-family:sans-serif;font-style:normal;font-weight:normal" x="285" y="79.9">
          <tspan x="285" y="79.9">Input</tspan>
        </text>
      </g>
      <g>
        <rect style="fill: #00ff00; fill-opacity: 1; stroke-opacity: 1; stroke-width: 2; stroke: #000000" x="257.125" y="-22" width="217.75" height="38" rx="0" ry="0"/>
        <text font-size="12.7998" style="fill: #000000; fill-opacity: 1; stroke: none;text-anchor:middle;font-family:sans-serif;font-style:normal;font-weight:normal" x="366" y="0.9">
          <tspan x="366" y="0.9">Process&lt;Service&gt; ( Message )</tspan>
        </text>
      </g>
      <g>
        <line style="fill: none; stroke-opacity: 1; stroke-width: 2; stroke: #000000" x1="306.526" y1="55.006" x2="337.628" y2="24.6714"/>
        <polygon style="fill: #000000; fill-opacity: 1; stroke-opacity: 1; stroke-width: 2; stroke: #000000" fill-rule="evenodd" points="341.119,28.2509 344.787,17.6893 334.137,21.092 "/>
      </g>
      <g>
        <polygon style="fill: #00ff00; fill-opacity: 1; stroke-opacity: 1; stroke-width: 2; stroke: #000000" fill-rule="evenodd" points="486.143,56 558.416,56 543.857,96 471.584,96 "/>
        <text font-size="12.7998" style="fill: #000000; fill-opacity: 1; stroke: none;text-anchor:middle;font-family:sans-serif;font-style:normal;font-weight:normal" x="515" y="79.9">
          <tspan x="515" y="79.9">Output</tspan>
        </text>
      </g>
      <g>
        <polygon style="fill: #00ff00; fill-opacity: 1; stroke-opacity: 1; stroke-width: 2; stroke: #000000" fill-rule="evenodd" points="396.932,48 435.863,75.2158 396.932,102.432 358,75.2158 "/>
        <text font-size="12.7998" style="fill: #000000; fill-opacity: 1; stroke: none;text-anchor:middle;font-family:sans-serif;font-style:normal;font-weight:normal" x="396.932" y="79.1158">
          <tspan x="396.932" y="79.1158">?</tspan>
        </text>
      </g>
      <g>
        <line style="fill: none; stroke-opacity: 1; stroke-width: 2; stroke: #000000" x1="373.884" y1="16.9359" x2="384.149" y2="42.893"/>
        <polygon style="fill: #000000; fill-opacity: 1; stroke-opacity: 1; stroke-width: 2; stroke: #000000" fill-rule="evenodd" points="379.499,44.7317 387.827,52.1922 388.799,41.0542 "/>
      </g>
      <g>
        <line style="fill: none; stroke-opacity: 1; stroke-width: 2; stroke: #000000" x1="436.863" y1="75.481" x2="467.32" y2="75.6833"/>
        <polygon style="fill: #000000; fill-opacity: 1; stroke-opacity: 1; stroke-width: 2; stroke: #000000" fill-rule="evenodd" points="467.287,80.6832 477.32,75.7497 467.353,70.6834 "/>
      </g>
      <g>
        <line style="fill: none; stroke-opacity: 1; stroke-width: 2; stroke: #000000" x1="357" y1="75.4956" x2="329.236" y2="75.6901"/>
        <polygon style="fill: #000000; fill-opacity: 1; stroke-opacity: 1; stroke-width: 2; stroke: #000000" fill-rule="evenodd" points="329.201,70.6902 319.237,75.7601 329.271,80.69 "/>
      </g>
      <g>
        <polygon style="fill: #00ff00; fill-opacity: 1; stroke-opacity: 1; stroke-width: 2; stroke: #000000" fill-rule="evenodd" points="263,-68 461.5,-68 473.5,-56 473.5,-34 263,-34 "/>
        <polyline style="fill: none; stroke-opacity: 1; stroke-width: 1; stroke: #000000" points="461.5,-68 461.5,-56 473.5,-56 "/>
        <text font-size="12.7998" style="fill: #000000; fill-opacity: 1; stroke: none;text-anchor:start;font-family:monospace;font-style:normal;font-weight:normal" x="270" y="-43.1">
          <tspan x="270" y="-43.1">Event Loop / Green Thread</tspan>
        </text>
      </g>
      <g>
        <rect style="fill: #00ff00; fill-opacity: 1; stroke-opacity: 1; stroke-width: 2; stroke: #000000" x="252" y="113" width="288.05" height="36"/>
        <text font-size="12.7998" style="fill: #000000; fill-opacity: 1; stroke: none;text-anchor:middle;font-family:sans-serif;font-style:normal;font-weight:normal" x="396.025" y="134.9">
          <tspan x="396.025" y="134.9">Service can handle thousands of contexts</tspan>
        </text>
        <line style="fill: none; stroke-opacity: 1; stroke-width: 1; stroke: #000000" x1="262" y1="137.95" x2="530.05" y2="137.95"/>
      </g>
      <polygon style="fill: #ffffff; fill-opacity: 1; stroke-opacity: 1; stroke-width: 2; stroke: #000000" fill-rule="evenodd" points="224,-130 507.2,-130 519.2,-118 519.2,-96 224,-96 "/>
      <polyline style="fill: none; stroke-opacity: 1; stroke-width: 1; stroke: #000000" points="507.2,-130 507.2,-118 519.2,-118 "/>
      <text font-size="12.7998" style="fill: #000000; fill-opacity: 1; stroke: none;text-anchor:start;font-family:monospace;font-style:normal;font-weight:normal" x="231" y="-105.1">
        <tspan x="231" y="-105.1">Posix thread with processor affinity</tspan>
      </text>
      <rect style="fill: #00ff00; fill-opacity: 1; stroke-opacity: 1; stroke-width: 2; stroke: #000000" x="228.95" y="186.55" width="350" height="254" rx="0" ry="0"/>
      <g>
        <polygon style="fill: #00ff00; fill-opacity: 1; stroke-opacity: 1; stroke-width: 2; stroke: #000000" fill-rule="evenodd" points="262.718,327.55 327.741,327.55 313.182,367.55 248.159,367.55 "/>
        <text font-size="12.7998" style="fill: #000000; fill-opacity: 1; stroke: none;text-anchor:middle;font-family:sans-serif;font-style:normal;font-weight:normal" x="287.95" y="351.45">
          <tspan x="287.95" y="351.45">Input</tspan>
        </text>
      </g>
      <g>
        <rect style="fill: #00ff00; fill-opacity: 1; stroke-opacity: 1; stroke-width: 2; stroke: #000000" x="260.075" y="249.55" width="217.75" height="38" rx="0" ry="0"/>
        <text font-size="12.7998" style="fill: #000000; fill-opacity: 1; stroke: none;text-anchor:middle;font-family:sans-serif;font-style:normal;font-weight:normal" x="368.95" y="272.45">
          <tspan x="368.95" y="272.45">Process&lt;Service&gt; ( Message )</tspan>
        </text>
      </g>
      <g>
        <line style="fill: none; stroke-opacity: 1; stroke-width: 2; stroke: #000000" x1="309.476" y1="326.556" x2="340.578" y2="296.221"/>
        <polygon style="fill: #000000; fill-opacity: 1; stroke-opacity: 1; stroke-width: 2; stroke: #000000" fill-rule="evenodd" points="344.069,299.801 347.737,289.239 337.087,292.642 "/>
      </g>
      <g>
        <polygon style="fill: #00ff00; fill-opacity: 1; stroke-opacity: 1; stroke-width: 2; stroke: #000000" fill-rule="evenodd" points="489.093,327.55 561.366,327.55 546.807,367.55 474.534,367.55 "/>
        <text font-size="12.7998" style="fill: #000000; fill-opacity: 1; stroke: none;text-anchor:middle;font-family:sans-serif;font-style:normal;font-weight:normal" x="517.95" y="351.45">
          <tspan x="517.95" y="351.45">Output</tspan>
        </text>
      </g>
      <g>
        <polygon style="fill: #00ff00; fill-opacity: 1; stroke-opacity: 1; stroke-width: 2; stroke: #000000" fill-rule="evenodd" points="399.882,319.55 438.813,346.766 399.882,373.982 360.95,346.766 "/>
        <text font-size="12.7998" style="fill: #000000; fill-opacity: 1; stroke: none;text-anchor:middle;font-family:sans-serif;font-style:normal;font-weight:normal" x="399.882" y="350.666">
          <tspan x="399.882" y="350.666">?</tspan>
        </text>
      </g>
      <g>
        <line style="fill: none; stroke-opacity: 1; stroke-width: 2; stroke: #000000" x1="376.834" y1="288.486" x2="387.099" y2="314.443"/>
        <polygon style="fill: #000000; fill-opacity: 1; stroke-opacity: 1; stroke-width: 2; stroke: #000000" fill-rule="evenodd" points="382.449,316.282 390.777,323.742 391.749,312.604 "/>
      </g>
      <g>
        <line style="fill: none; stroke-opacity: 1; stroke-width: 2; stroke: #000000" x1="439.813" y1="347.031" x2="470.27" y2="347.233"/>
        <polygon style="fill: #000000; fill-opacity: 1; stroke-opacity: 1; stroke-width: 2; stroke: #000000" fill-rule="evenodd" points="470.237,352.233 480.27,347.3 470.303,342.233 "/>
      </g>
      <g>
        <line style="fill: none; stroke-opacity: 1; stroke-width: 2; stroke: #000000" x1="359.95" y1="347.046" x2="332.186" y2="347.24"/>
        <polygon style="fill: #000000; fill-opacity: 1; stroke-opacity: 1; stroke-width: 2; stroke: #000000" fill-rule="evenodd" points="332.151,342.24 322.187,347.31 332.221,352.24 "/>
      </g>
      <g>
        <polygon style="fill: #00ff00; fill-opacity: 1; stroke-opacity: 1; stroke-width: 2; stroke: #000000" fill-rule="evenodd" points="265.95,203.55 464.45,203.55 476.45,215.55 476.45,237.55 265.95,237.55 "/>
        <polyline style="fill: none; stroke-opacity: 1; stroke-width: 1; stroke: #000000" points="464.45,203.55 464.45,215.55 476.45,215.55 "/>
        <text font-size="12.7998" style="fill: #000000; fill-opacity: 1; stroke: none;text-anchor:start;font-family:monospace;font-style:normal;font-weight:normal" x="272.95" y="228.45">
          <tspan x="272.95" y="228.45">Event Loop / Green Thread</tspan>
        </text>
      </g>
      <g>
        <rect style="fill: #00ff00; fill-opacity: 1; stroke-opacity: 1; stroke-width: 2; stroke: #000000" x="254.95" y="384.55" width="288.05" height="36"/>
        <text font-size="12.7998" style="fill: #000000; fill-opacity: 1; stroke: none;text-anchor:middle;font-family:sans-serif;font-style:normal;font-weight:normal" x="398.975" y="406.45">
          <tspan x="398.975" y="406.45">Service can handle thousands of contexts</tspan>
        </text>
        <line style="fill: none; stroke-opacity: 1; stroke-width: 1; stroke: #000000" x1="264.95" y1="409.5" x2="533" y2="409.5"/>
      </g>
      <rect style="fill: #00ff00; fill-opacity: 1; stroke-opacity: 1; stroke-width: 2; stroke: #000000" x="228.9" y="464.1" width="350" height="254" rx="0" ry="0"/>
      <g>
        <polygon style="fill: #00ff00; fill-opacity: 1; stroke-opacity: 1; stroke-width: 2; stroke: #000000" fill-rule="evenodd" points="262.668,605.1 327.691,605.1 313.132,645.1 248.109,645.1 "/>
        <text font-size="12.7998" style="fill: #000000; fill-opacity: 1; stroke: none;text-anchor:middle;font-family:sans-serif;font-style:normal;font-weight:normal" x="287.9" y="629">
          <tspan x="287.9" y="629">Input</tspan>
        </text>
      </g>
      <g>
        <rect style="fill: #00ff00; fill-opacity: 1; stroke-opacity: 1; stroke-width: 2; stroke: #000000" x="260.025" y="527.1" width="217.75" height="38" rx="0" ry="0"/>
        <text font-size="12.7998" style="fill: #000000; fill-opacity: 1; stroke: none;text-anchor:middle;font-family:sans-serif;font-style:normal;font-weight:normal" x="368.9" y="550">
          <tspan x="368.9" y="550">Process&lt;Service&gt; ( Message )</tspan>
        </text>
      </g>
      <g>
        <line style="fill: none; stroke-opacity: 1; stroke-width: 2; stroke: #000000" x1="309.426" y1="604.106" x2="340.528" y2="573.771"/>
        <polygon style="fill: #000000; fill-opacity: 1; stroke-opacity: 1; stroke-width: 2; stroke: #000000" fill-rule="evenodd" points="344.019,577.351 347.687,566.789 337.037,570.192 "/>
      </g>
      <g>
        <polygon style="fill: #00ff00; fill-opacity: 1; stroke-opacity: 1; stroke-width: 2; stroke: #000000" fill-rule="evenodd" points="489.043,605.1 561.316,605.1 546.757,645.1 474.484,645.1 "/>
        <text font-size="12.7998" style="fill: #000000; fill-opacity: 1; stroke: none;text-anchor:middle;font-family:sans-serif;font-style:normal;font-weight:normal" x="517.9" y="629">
          <tspan x="517.9" y="629">Output</tspan>
        </text>
      </g>
      <g>
        <polygon style="fill: #00ff00; fill-opacity: 1; stroke-opacity: 1; stroke-width: 2; stroke: #000000" fill-rule="evenodd" points="399.832,597.1 438.763,624.316 399.832,651.532 360.9,624.316 "/>
        <text font-size="12.7998" style="fill: #000000; fill-opacity: 1; stroke: none;text-anchor:middle;font-family:sans-serif;font-style:normal;font-weight:normal" x="399.832" y="628.216">
          <tspan x="399.832" y="628.216">?</tspan>
        </text>
      </g>
      <g>
        <line style="fill: none; stroke-opacity: 1; stroke-width: 2; stroke: #000000" x1="376.784" y1="566.036" x2="387.049" y2="591.993"/>
        <polygon style="fill: #000000; fill-opacity: 1; stroke-opacity: 1; stroke-width: 2; stroke: #000000" fill-rule="evenodd" points="382.399,593.832 390.727,601.292 391.699,590.154 "/>
      </g>
      <g>
        <line style="fill: none; stroke-opacity: 1; stroke-width: 2; stroke: #000000" x1="439.763" y1="624.581" x2="470.22" y2="624.783"/>
        <polygon style="fill: #000000; fill-opacity: 1; stroke-opacity: 1; stroke-width: 2; stroke: #000000" fill-rule="evenodd" points="470.187,629.783 480.22,624.85 470.253,619.783 "/>
      </g>
      <g>
        <line style="fill: none; stroke-opacity: 1; stroke-width: 2; stroke: #000000" x1="359.9" y1="624.596" x2="332.136" y2="624.79"/>
        <polygon style="fill: #000000; fill-opacity: 1; stroke-opacity: 1; stroke-width: 2; stroke: #000000" fill-rule="evenodd" points="332.101,619.79 322.137,624.86 332.171,629.79 "/>
      </g>
      <g>
        <polygon style="fill: #00ff00; fill-opacity: 1; stroke-opacity: 1; stroke-width: 2; stroke: #000000" fill-rule="evenodd" points="265.9,481.1 464.4,481.1 476.4,493.1 476.4,515.1 265.9,515.1 "/>
        <polyline style="fill: none; stroke-opacity: 1; stroke-width: 1; stroke: #000000" points="464.4,481.1 464.4,493.1 476.4,493.1 "/>
        <text font-size="12.7998" style="fill: #000000; fill-opacity: 1; stroke: none;text-anchor:start;font-family:monospace;font-style:normal;font-weight:normal" x="272.9" y="506">
          <tspan x="272.9" y="506">Event Loop / Green Thread</tspan>
        </text>
      </g>
      <g>
        <rect style="fill: #00ff00; fill-opacity: 1; stroke-opacity: 1; stroke-width: 2; stroke: #000000" x="254.9" y="662.1" width="288.05" height="36"/>
        <text font-size="12.7998" style="fill: #000000; fill-opacity: 1; stroke: none;text-anchor:middle;font-family:sans-serif;font-style:normal;font-weight:normal" x="398.925" y="684">
          <tspan x="398.925" y="684">Service can handle thousands of contexts</tspan>
        </text>
        <line style="fill: none; stroke-opacity: 1; stroke-width: 1; stroke: #000000" x1="264.9" y1="687.05" x2="532.95" y2="687.05"/>
      </g>
      <polygon style="fill: #ffffff; fill-opacity: 1; stroke-opacity: 1; stroke-width: 2; stroke: #000000" fill-rule="evenodd" points="182.833,-184.917 242.733,-184.917 254.733,-172.917 254.733,-150.917 182.833,-150.917 "/>
      <polyline style="fill: none; stroke-opacity: 1; stroke-width: 1; stroke: #000000" points="242.733,-184.917 242.733,-172.917 254.733,-172.917 "/>
      <text font-size="12.7998" style="fill: #000000; fill-opacity: 1; stroke: none;text-anchor:start;font-family:monospace;font-style:normal;font-weight:normal" x="189.833" y="-160.017">
        <tspan x="189.833" y="-160.017">Process</tspan>
      </text>
    </g>
    <g>
      <rect style="fill: #ffa500; fill-opacity: 1; stroke-opacity: 1; stroke-width: 2; stroke: #000000" x="661.117" y="-192.033" width="477.333" height="977.333" rx="0" ry="0"/>
      <rect style="fill: #ffff00; fill-opacity: 1; stroke-opacity: 1; stroke-width: 2; stroke: #000000" x="710.95" y="-139.45" width="400" height="901.75" rx="0" ry="0"/>
      <rect style="fill: #00ff00; fill-opacity: 1; stroke-opacity: 1; stroke-width: 2; stroke: #000000" x="734.95" y="-81.45" width="350" height="254" rx="0" ry="0"/>
      <g>
        <polygon style="fill: #00ff00; fill-opacity: 1; stroke-opacity: 1; stroke-width: 2; stroke: #000000" fill-rule="evenodd" points="768.718,59.55 833.741,59.55 819.182,99.55 754.159,99.55 "/>
        <text font-size="12.7998" style="fill: #000000; fill-opacity: 1; stroke: none;text-anchor:middle;font-family:sans-serif;font-style:normal;font-weight:normal" x="793.95" y="83.45">
          <tspan x="793.95" y="83.45">Input</tspan>
        </text>
      </g>
      <g>
        <rect style="fill: #00ff00; fill-opacity: 1; stroke-opacity: 1; stroke-width: 2; stroke: #000000" x="766.075" y="-18.45" width="217.75" height="38" rx="0" ry="0"/>
        <text font-size="12.7998" style="fill: #000000; fill-opacity: 1; stroke: none;text-anchor:middle;font-family:sans-serif;font-style:normal;font-weight:normal" x="874.95" y="4.45">
          <tspan x="874.95" y="4.45">Process&lt;Service&gt; ( Message )</tspan>
        </text>
      </g>
      <g>
        <line style="fill: none; stroke-opacity: 1; stroke-width: 2; stroke: #000000" x1="815.476" y1="58.556" x2="846.578" y2="28.2214"/>
        <polygon style="fill: #000000; fill-opacity: 1; stroke-opacity: 1; stroke-width: 2; stroke: #000000" fill-rule="evenodd" points="850.069,31.8009 853.737,21.2393 843.087,24.642 "/>
      </g>
      <g>
        <polygon style="fill: #00ff00; fill-opacity: 1; stroke-opacity: 1; stroke-width: 2; stroke: #000000" fill-rule="evenodd" points="995.093,59.55 1067.37,59.55 1052.81,99.55 980.534,99.55 "/>
        <text font-size="12.7998" style="fill: #000000; fill-opacity: 1; stroke: none;text-anchor:middle;font-family:sans-serif;font-style:normal;font-weight:normal" x="1023.95" y="83.45">
          <tspan x="1023.95" y="83.45">Output</tspan>
        </text>
      </g>
      <g>
        <polygon style="fill: #00ff00; fill-opacity: 1; stroke-opacity: 1; stroke-width: 2; stroke: #000000" fill-rule="evenodd" points="905.882,51.55 944.813,78.7658 905.882,105.982 866.95,78.7658 "/>
        <text font-size="12.7998" style="fill: #000000; fill-opacity: 1; stroke: none;text-anchor:middle;font-family:sans-serif;font-style:normal;font-weight:normal" x="905.882" y="82.6658">
          <tspan x="905.882" y="82.6658">?</tspan>
        </text>
      </g>
      <g>
        <line style="fill: none; stroke-opacity: 1; stroke-width: 2; stroke: #000000" x1="882.834" y1="20.4859" x2="893.099" y2="46.443"/>
        <polygon style="fill: #000000; fill-opacity: 1; stroke-opacity: 1; stroke-width: 2; stroke: #000000" fill-rule="evenodd" points="888.449,48.2817 896.777,55.7422 897.749,44.6042 "/>
      </g>
      <g>
        <line style="fill: none; stroke-opacity: 1; stroke-width: 2; stroke: #000000" x1="945.813" y1="79.031" x2="976.27" y2="79.2333"/>
        <polygon style="fill: #000000; fill-opacity: 1; stroke-opacity: 1; stroke-width: 2; stroke: #000000" fill-rule="evenodd" points="976.237,84.2332 986.27,79.2997 976.303,74.2334 "/>
      </g>
      <g>
        <line style="fill: none; stroke-opacity: 1; stroke-width: 2; stroke: #000000" x1="865.95" y1="79.0456" x2="838.186" y2="79.2401"/>
        <polygon style="fill: #000000; fill-opacity: 1; stroke-opacity: 1; stroke-width: 2; stroke: #000000" fill-rule="evenodd" points="838.151,74.2402 828.187,79.3101 838.221,84.24 "/>
      </g>
      <g>
        <polygon style="fill: #00ff00; fill-opacity: 1; stroke-opacity: 1; stroke-width: 2; stroke: #000000" fill-rule="evenodd" points="771.95,-64.45 970.45,-64.45 982.45,-52.45 982.45,-30.45 771.95,-30.45 "/>
        <polyline style="fill: none; stroke-opacity: 1; stroke-width: 1; stroke: #000000" points="970.45,-64.45 970.45,-52.45 982.45,-52.45 "/>
        <text font-size="12.7998" style="fill: #000000; fill-opacity: 1; stroke: none;text-anchor:start;font-family:monospace;font-style:normal;font-weight:normal" x="778.95" y="-39.55">
          <tspan x="778.95" y="-39.55">Event Loop / Green Thread</tspan>
        </text>
      </g>
      <g>
        <rect style="fill: #00ff00; fill-opacity: 1; stroke-opacity: 1; stroke-width: 2; stroke: #000000" x="760.95" y="116.55" width="288.05" height="36"/>
        <text font-size="12.7998" style="fill: #000000; fill-opacity: 1; stroke: none;text-anchor:middle;font-family:sans-serif;font-style:normal;font-weight:normal" x="904.975" y="138.45">
          <tspan x="904.975" y="138.45">Service can handle thousands of contexts</tspan>
        </text>
        <line style="fill: none; stroke-opacity: 1; stroke-width: 1; stroke: #000000" x1="770.95" y1="141.5" x2="1039" y2="141.5"/>
      </g>
      <polygon style="fill: #ffffff; fill-opacity: 1; stroke-opacity: 1; stroke-width: 2; stroke: #000000" fill-rule="evenodd" points="732.95,-126.45 1016.15,-126.45 1028.15,-114.45 1028.15,-92.45 732.95,-92.45 "/>
      <polyline style="fill: none; stroke-opacity: 1; stroke-width: 1; stroke: #000000" points="1016.15,-126.45 1016.15,-114.45 1028.15,-114.45 "/>
      <text font-size="12.7998" style="fill: #000000; fill-opacity: 1; stroke: none;text-anchor:start;font-family:monospace;font-style:normal;font-weight:normal" x="739.95" y="-101.55">
        <tspan x="739.95" y="-101.55">Posix thread with processor affinity</tspan>
      </text>
      <rect style="fill: #00ff00; fill-opacity: 1; stroke-opacity: 1; stroke-width: 2; stroke: #000000" x="737.9" y="190.1" width="350" height="254" rx="0" ry="0"/>
      <g>
        <polygon style="fill: #00ff00; fill-opacity: 1; stroke-opacity: 1; stroke-width: 2; stroke: #000000" fill-rule="evenodd" points="771.668,331.1 836.691,331.1 822.132,371.1 757.109,371.1 "/>
        <text font-size="12.7998" style="fill: #000000; fill-opacity: 1; stroke: none;text-anchor:middle;font-family:sans-serif;font-style:normal;font-weight:normal" x="796.9" y="355">
          <tspan x="796.9" y="355">Input</tspan>
        </text>
      </g>
      <g>
        <rect style="fill: #00ff00; fill-opacity: 1; stroke-opacity: 1; stroke-width: 2; stroke: #000000" x="769.025" y="253.1" width="217.75" height="38" rx="0" ry="0"/>
        <text font-size="12.7998" style="fill: #000000; fill-opacity: 1; stroke: none;text-anchor:middle;font-family:sans-serif;font-style:normal;font-weight:normal" x="877.9" y="276">
          <tspan x="877.9" y="276">Process&lt;Service&gt; ( Message )</tspan>
        </text>
      </g>
      <g>
        <line style="fill: none; stroke-opacity: 1; stroke-width: 2; stroke: #000000" x1="818.426" y1="330.106" x2="849.528" y2="299.771"/>
        <polygon style="fill: #000000; fill-opacity: 1; stroke-opacity: 1; stroke-width: 2; stroke: #000000" fill-rule="evenodd" points="853.019,303.351 856.687,292.789 846.037,296.192 "/>
      </g>
      <g>
        <polygon style="fill: #00ff00; fill-opacity: 1; stroke-opacity: 1; stroke-width: 2; stroke: #000000" fill-rule="evenodd" points="998.043,331.1 1070.32,331.1 1055.76,371.1 983.484,371.1 "/>
        <text font-size="12.7998" style="fill: #000000; fill-opacity: 1; stroke: none;text-anchor:middle;font-family:sans-serif;font-style:normal;font-weight:normal" x="1026.9" y="355">
          <tspan x="1026.9" y="355">Output</tspan>
        </text>
      </g>
      <g>
        <polygon style="fill: #00ff00; fill-opacity: 1; stroke-opacity: 1; stroke-width: 2; stroke: #000000" fill-rule="evenodd" points="908.832,323.1 947.763,350.316 908.832,377.532 869.9,350.316 "/>
        <text font-size="12.7998" style="fill: #000000; fill-opacity: 1; stroke: none;text-anchor:middle;font-family:sans-serif;font-style:normal;font-weight:normal" x="908.832" y="354.216">
          <tspan x="908.832" y="354.216">?</tspan>
        </text>
      </g>
      <g>
        <line style="fill: none; stroke-opacity: 1; stroke-width: 2; stroke: #000000" x1="885.784" y1="292.036" x2="896.049" y2="317.993"/>
        <polygon style="fill: #000000; fill-opacity: 1; stroke-opacity: 1; stroke-width: 2; stroke: #000000" fill-rule="evenodd" points="891.399,319.832 899.727,327.292 900.699,316.154 "/>
      </g>
      <g>
        <line style="fill: none; stroke-opacity: 1; stroke-width: 2; stroke: #000000" x1="948.763" y1="350.581" x2="979.22" y2="350.783"/>
        <polygon style="fill: #000000; fill-opacity: 1; stroke-opacity: 1; stroke-width: 2; stroke: #000000" fill-rule="evenodd" points="979.187,355.783 989.22,350.85 979.253,345.783 "/>
      </g>
      <g>
        <line style="fill: none; stroke-opacity: 1; stroke-width: 2; stroke: #000000" x1="868.9" y1="350.596" x2="841.136" y2="350.79"/>
        <polygon style="fill: #000000; fill-opacity: 1; stroke-opacity: 1; stroke-width: 2; stroke: #000000" fill-rule="evenodd" points="841.101,345.79 831.137,350.86 841.171,355.79 "/>
      </g>
      <g>
        <polygon style="fill: #00ff00; fill-opacity: 1; stroke-opacity: 1; stroke-width: 2; stroke: #000000" fill-rule="evenodd" points="774.9,207.1 973.4,207.1 985.4,219.1 985.4,241.1 774.9,241.1 "/>
        <polyline style="fill: none; stroke-opacity: 1; stroke-width: 1; stroke: #000000" points="973.4,207.1 973.4,219.1 985.4,219.1 "/>
        <text font-size="12.7998" style="fill: #000000; fill-opacity: 1; stroke: none;text-anchor:start;font-family:monospace;font-style:normal;font-weight:normal" x="781.9" y="232">
          <tspan x="781.9" y="232">Event Loop / Green Thread</tspan>
        </text>
      </g>
      <g>
        <rect style="fill: #00ff00; fill-opacity: 1; stroke-opacity: 1; stroke-width: 2; stroke: #000000" x="763.9" y="388.1" width="288.05" height="36"/>
        <text font-size="12.7998" style="fill: #000000; fill-opacity: 1; stroke: none;text-anchor:middle;font-family:sans-serif;font-style:normal;font-weight:normal" x="907.925" y="410">
          <tspan x="907.925" y="410">Service can handle thousands of contexts</tspan>
        </text>
        <line style="fill: none; stroke-opacity: 1; stroke-width: 1; stroke: #000000" x1="773.9" y1="413.05" x2="1041.95" y2="413.05"/>
      </g>
      <rect style="fill: #00ff00; fill-opacity: 1; stroke-opacity: 1; stroke-width: 2; stroke: #000000" x="737.85" y="467.65" width="350" height="254" rx="0" ry="0"/>
      <g>
        <polygon style="fill: #00ff00; fill-opacity: 1; stroke-opacity: 1; stroke-width: 2; stroke: #000000" fill-rule="evenodd" points="771.618,608.65 836.641,608.65 822.082,648.65 757.059,648.65 "/>
        <text font-size="12.7998" style="fill: #000000; fill-opacity: 1; stroke: none;text-anchor:middle;font-family:sans-serif;font-style:normal;font-weight:normal" x="796.85" y="632.55">
          <tspan x="796.85" y="632.55">Input</tspan>
        </text>
      </g>
      <g>
        <rect style="fill: #00ff00; fill-opacity: 1; stroke-opacity: 1; stroke-width: 2; stroke: #000000" x="768.975" y="530.65" width="217.75" height="38" rx="0" ry="0"/>
        <text font-size="12.7998" style="fill: #000000; fill-opacity: 1; stroke: none;text-anchor:middle;font-family:sans-serif;font-style:normal;font-weight:normal" x="877.85" y="553.55">
          <tspan x="877.85" y="553.55">Process&lt;Service&gt; ( Message )</tspan>
        </text>
      </g>
      <g>
        <line style="fill: none; stroke-opacity: 1; stroke-width: 2; stroke: #000000" x1="818.376" y1="607.656" x2="849.478" y2="577.321"/>
        <polygon style="fill: #000000; fill-opacity: 1; stroke-opacity: 1; stroke-width: 2; stroke: #000000" fill-rule="evenodd" points="852.969,580.901 856.637,570.339 845.987,573.742 "/>
      </g>
      <g>
        <polygon style="fill: #00ff00; fill-opacity: 1; stroke-opacity: 1; stroke-width: 2; stroke: #000000" fill-rule="evenodd" points="997.993,608.65 1070.27,608.65 1055.71,648.65 983.434,648.65 "/>
        <text font-size="12.7998" style="fill: #000000; fill-opacity: 1; stroke: none;text-anchor:middle;font-family:sans-serif;font-style:normal;font-weight:normal" x="1026.85" y="632.55">
          <tspan x="1026.85" y="632.55">Output</tspan>
        </text>
      </g>
      <g>
        <polygon style="fill: #00ff00; fill-opacity: 1; stroke-opacity: 1; stroke-width: 2; stroke: #000000" fill-rule="evenodd" points="908.782,600.65 947.713,627.866 908.782,655.082 869.85,627.866 "/>
        <text font-size="12.7998" style="fill: #000000; fill-opacity: 1; stroke: none;text-anchor:middle;font-family:sans-serif;font-style:normal;font-weight:normal" x="908.782" y="631.766">
          <tspan x="908.782" y="631.766">?</tspan>
        </text>
      </g>
      <g>
        <line style="fill: none; stroke-opacity: 1; stroke-width: 2; stroke: #000000" x1="885.734" y1="569.586" x2="895.999" y2="595.543"/>
        <polygon style="fill: #000000; fill-opacity: 1; stroke-opacity: 1; stroke-width: 2; stroke: #000000" fill-rule="evenodd" points="891.349,597.382 899.677,604.842 900.649,593.704 "/>
      </g>
      <g>
        <line style="fill: none; stroke-opacity: 1; stroke-width: 2; stroke: #000000" x1="948.713" y1="628.131" x2="979.17" y2="628.333"/>
        <polygon style="fill: #000000; fill-opacity: 1; stroke-opacity: 1; stroke-width: 2; stroke: #000000" fill-rule="evenodd" points="979.137,633.333 989.17,628.4 979.203,623.333 "/>
      </g>
      <g>
        <line style="fill: none; stroke-opacity: 1; stroke-width: 2; stroke: #000000" x1="868.85" y1="628.146" x2="841.086" y2="628.34"/>
        <polygon style="fill: #000000; fill-opacity: 1; stroke-opacity: 1; stroke-width: 2; stroke: #000000" fill-rule="evenodd" points="841.051,623.34 831.087,628.41 841.121,633.34 "/>
      </g>
      <g>
        <polygon style="fill: #00ff00; fill-opacity: 1; stroke-opacity: 1; stroke-width: 2; stroke: #000000" fill-rule="evenodd" points="774.85,484.65 973.35,484.65 985.35,496.65 985.35,518.65 774.85,518.65 "/>
        <polyline style="fill: none; stroke-opacity: 1; stroke-width: 1; stroke: #000000" points="973.35,484.65 973.35,496.65 985.35,496.65 "/>
        <text font-size="12.7998" style="fill: #000000; fill-opacity: 1; stroke: none;text-anchor:start;font-family:monospace;font-style:normal;font-weight:normal" x="781.85" y="509.55">
          <tspan x="781.85" y="509.55">Event Loop / Green Thread</tspan>
        </text>
      </g>
      <g>
        <rect style="fill: #00ff00; fill-opacity: 1; stroke-opacity: 1; stroke-width: 2; stroke: #000000" x="763.85" y="665.65" width="288.05" height="36"/>
        <text font-size="12.7998" style="fill: #000000; fill-opacity: 1; stroke: none;text-anchor:middle;font-family:sans-serif;font-style:normal;font-weight:normal" x="907.875" y="687.55">
          <tspan x="907.875" y="687.55">Service can handle thousands of contexts</tspan>
        </text>
        <line style="fill: none; stroke-opacity: 1; stroke-width: 1; stroke: #000000" x1="773.85" y1="690.6" x2="1041.9" y2="690.6"/>
      </g>
      <polygon style="fill: #ffffff; fill-opacity: 1; stroke-opacity: 1; stroke-width: 2; stroke: #000000" fill-rule="evenodd" points="691.783,-181.367 751.683,-181.367 763.683,-169.367 763.683,-147.367 691.783,-147.367 "/>
      <polyline style="fill: none; stroke-opacity: 1; stroke-width: 1; stroke: #000000" points="751.683,-181.367 751.683,-169.367 763.683,-169.367 "/>
      <text font-size="12.7998" style="fill: #000000; fill-opacity: 1; stroke: none;text-anchor:start;font-family:monospace;font-style:normal;font-weight:normal" x="698.783" y="-156.467">
        <tspan x="698.783" y="-156.467">Process</tspan>
      </text>
    </g>
    <g>
      <polygon style="fill: #0000ff; fill-opacity: 1; stroke-opacity: 1; stroke-width: 2; stroke: #000000" fill-rule="evenodd" points="196,-270.5 1059.5,-270.5 1071.5,-258.5 1071.5,-227.1 196,-227.1 "/>
      <polyline style="fill: none; stroke-opacity: 1; stroke-width: 1; stroke: #000000" points="1059.5,-270.5 1059.5,-258.5 1071.5,-258.5 "/>
      <text font-size="20.32" style="fill: #ffffff; fill-opacity: 1; stroke: none;text-anchor:start;font-family:monospace;font-style:normal;font-weight:700" x="203" y="-238.6">
        <tspan x="203" y="-238.6">How to use green thread in C++ with affinity for real-time processing.</tspan>
      </text>
    </g>
  </g>
</svg>
