<?xml version="1.0" encoding="UTF-8" standalone="no"?>
<!DOCTYPE svg PUBLIC "-//W3C//DTD SVG 1.0//EN" "http://www.w3.org/TR/2001/PR-SVG-20010719/DTD/svg10.dtd">
<svg width="51cm" height="53cm" viewBox="151 -272 1005 1055" xmlns="http://www.w3.org/2000/svg" xmlns:xlink="http://www.w3.org/1999/xlink">
  <defs/>
  <g id="Background">
    <g>
      <polygon style="fill: #0000ff; fill-opacity: 1; stroke-opacity: 1; stroke-width: 2; stroke: #000000" fill-rule="evenodd" points="196,-270.5 1071.75,-270.5 1083.75,-258.5 1083.75,-227.1 196,-227.1 "/>
      <polyline style="fill: none; stroke-opacity: 1; stroke-width: 1; stroke: #000000" points="1071.75,-270.5 1071.75,-258.5 1083.75,-258.5 "/>
      <text font-size="20.32" style="fill: #ffffff; fill-opacity: 1; stroke: none;text-anchor:start;font-family:monospace;font-style:normal;font-weight:700" x="203" y="-238.6">
        <tspan x="203" y="-238.6">Multi-reactor per thread in C++ with affinity for real-time processing.</tspan>
      </text>
    </g>
    <g>
      <rect style="fill: #ffa500; fill-opacity: 1; stroke-opacity: 1; stroke-width: 2; stroke: #000000" x="152.167" y="-195.583" width="477.333" height="977.333" rx="0" ry="0"/>
      <rect style="fill: #ffff00; fill-opacity: 1; stroke-opacity: 1; stroke-width: 2; stroke: #000000" x="202" y="-143" width="400" height="901.75" rx="0" ry="0"/>
      <polygon style="fill: #ffffff; fill-opacity: 1; stroke-opacity: 1; stroke-width: 2; stroke: #000000" fill-rule="evenodd" points="224,-130 507.2,-130 519.2,-118 519.2,-96 224,-96 "/>
      <polyline style="fill: none; stroke-opacity: 1; stroke-width: 1; stroke: #000000" points="507.2,-130 507.2,-118 519.2,-118 "/>
      <text font-size="12.8" style="fill: #000000; fill-opacity: 1; stroke: none;text-anchor:start;font-family:monospace;font-style:normal;font-weight:normal" x="231" y="-105.1">
        <tspan x="231" y="-105.1">Posix thread with processor affinity</tspan>
      </text>
      <polygon style="fill: #ffffff; fill-opacity: 1; stroke-opacity: 1; stroke-width: 2; stroke: #000000" fill-rule="evenodd" points="182.833,-184.917 242.733,-184.917 254.733,-172.917 254.733,-150.917 182.833,-150.917 "/>
      <polyline style="fill: none; stroke-opacity: 1; stroke-width: 1; stroke: #000000" points="242.733,-184.917 242.733,-172.917 254.733,-172.917 "/>
      <text font-size="12.8" style="fill: #000000; fill-opacity: 1; stroke: none;text-anchor:start;font-family:monospace;font-style:normal;font-weight:normal" x="189.833" y="-160.017">
        <tspan x="189.833" y="-160.017">Process</tspan>
      </text>
      <rect style="fill: #00ff00; fill-opacity: 1; stroke-opacity: 1; stroke-width: 2; stroke: #000000" x="224.5" y="-84.7" width="350" height="270" rx="0" ry="0"/>
      <g>
        <polygon style="fill: #00ff00; fill-opacity: 1; stroke-opacity: 1; stroke-width: 2; stroke: #000000" fill-rule="evenodd" points="249.592,15.4 331.965,15.4 317.407,55.4 235.033,55.4 "/>
        <text font-size="12.8" style="fill: #000000; fill-opacity: 1; stroke: none;text-anchor:middle;font-family:sans-serif;font-style:normal;font-weight:normal" x="283.499" y="39.3">
          <tspan x="283.499" y="39.3">Pop</tspan>
        </text>
      </g>
      <g>
        <rect style="fill: #00ff00; fill-opacity: 1; stroke-opacity: 1; stroke-width: 2; stroke: #000000" x="256.799" y="-62.6" width="275.4" height="38" rx="0" ry="0"/>
        <text font-size="12.8" style="fill: #000000; fill-opacity: 1; stroke: none;text-anchor:middle;font-family:sans-serif;font-style:normal;font-weight:normal" x="394.499" y="-39.7">
          <tspan x="394.499" y="-39.7">Reactor::Process&lt;Service&gt; ( Message )</tspan>
        </text>
      </g>
      <g>
        <line style="fill: none; stroke-opacity: 1; stroke-width: 2; stroke: #000000" x1="312.997" y1="14.406" x2="357.448" y2="-17.2306"/>
        <polygon style="fill: #000000; fill-opacity: 1; stroke-opacity: 1; stroke-width: 2; stroke: #000000" fill-rule="evenodd" points="360.348,-13.157 365.596,-23.0291 354.549,-21.3042 "/>
      </g>
      <g>
        <polygon style="fill: #00ff00; fill-opacity: 1; stroke-opacity: 1; stroke-width: 2; stroke: #000000" fill-rule="evenodd" points="484.643,15.4 556.916,15.4 542.358,55.4 470.084,55.4 "/>
        <text font-size="12.8" style="fill: #000000; fill-opacity: 1; stroke: none;text-anchor:middle;font-family:sans-serif;font-style:normal;font-weight:normal" x="513.5" y="39.3">
          <tspan x="513.5" y="39.3">Post</tspan>
        </text>
      </g>
      <g>
        <polygon style="fill: #00ff00; fill-opacity: 1; stroke-opacity: 1; stroke-width: 2; stroke: #000000" fill-rule="evenodd" points="395.432,7.4 434.363,34.6158 395.432,61.8316 356.5,34.6158 "/>
        <text font-size="12.8" style="fill: #000000; fill-opacity: 1; stroke: none;text-anchor:middle;font-family:sans-serif;font-style:normal;font-weight:normal" x="395.432" y="38.5158">
          <tspan x="395.432" y="38.5158">?</tspan>
        </text>
      </g>
      <g>
        <line style="fill: none; stroke-opacity: 1; stroke-width: 2; stroke: #000000" x1="394.737" y1="-23.6641" x2="394.967" y2="-4.35855"/>
        <polygon style="fill: #000000; fill-opacity: 1; stroke-opacity: 1; stroke-width: 2; stroke: #000000" fill-rule="evenodd" points="389.967,-4.29894 395.086,5.64074 399.967,-4.41816 "/>
      </g>
      <g>
        <line style="fill: none; stroke-opacity: 1; stroke-width: 2; stroke: #000000" x1="435.364" y1="34.882" x2="465.836" y2="35.084"/>
        <polygon style="fill: #000000; fill-opacity: 1; stroke-opacity: 1; stroke-width: 2; stroke: #000000" fill-rule="evenodd" points="465.803,40.0839 475.836,35.1503 465.869,30.0841 "/>
      </g>
      <g>
        <line style="fill: none; stroke-opacity: 1; stroke-width: 2; stroke: #000000" x1="355.5" y1="34.896" x2="336.423" y2="35.0295"/>
        <polygon style="fill: #000000; fill-opacity: 1; stroke-opacity: 1; stroke-width: 2; stroke: #000000" fill-rule="evenodd" points="336.388,30.0297 326.423,35.0995 336.458,40.0294 "/>
      </g>
      <line style="fill: none; stroke-opacity: 1; stroke-width: 2; stroke: #000000" x1="342.597" y1="129.244" x2="361.503" y2="117.306"/>
      <line style="fill: none; stroke-opacity: 1; stroke-width: 2; stroke: #000000" x1="394.032" y1="129.244" x2="393.093" y2="117.306"/>
      <line style="fill: none; stroke-opacity: 1; stroke-width: 2; stroke: #000000" x1="446.508" y1="128.242" x2="426.367" y2="117.258"/>
      <g>
        <rect style="fill: #1e90ff; fill-opacity: 1; stroke-opacity: 1; stroke-width: 2; stroke: #000000" x="342.6" y="80.3" width="98" height="36"/>
        <text font-size="12.8" style="fill: #000000; fill-opacity: 1; stroke: none;text-anchor:middle;font-family:sans-serif;font-style:normal;font-weight:normal" x="391.6" y="102.2">
          <tspan x="391.6" y="102.2">root context</tspan>
        </text>
        <line style="fill: none; stroke-opacity: 1; stroke-width: 1; stroke: #000000" x1="352.6" y1="105.25" x2="430.6" y2="105.25"/>
        <rect style="fill: #1e90ff; fill-opacity: 1; stroke-opacity: 1; stroke-width: 2; stroke: #000000" x="359.35" y="130.25" width="72.35" height="36"/>
        <text font-size="12.8" style="fill: #000000; fill-opacity: 1; stroke: none;text-anchor:middle;font-family:sans-serif;font-style:normal;font-weight:normal" x="395.525" y="152.15">
          <tspan x="395.525" y="152.15">object B</tspan>
        </text>
        <line style="fill: none; stroke-opacity: 1; stroke-width: 1; stroke: #000000" x1="369.35" y1="155.2" x2="421.7" y2="155.2"/>
        <rect style="fill: #1e90ff; fill-opacity: 1; stroke-opacity: 1; stroke-width: 2; stroke: #000000" x="276.35" y="130.25" width="72.3" height="36"/>
        <text font-size="12.8" style="fill: #000000; fill-opacity: 1; stroke: none;text-anchor:middle;font-family:sans-serif;font-style:normal;font-weight:normal" x="312.5" y="152.15">
          <tspan x="312.5" y="152.15">object A</tspan>
        </text>
        <line style="fill: none; stroke-opacity: 1; stroke-width: 1; stroke: #000000" x1="286.35" y1="155.2" x2="338.65" y2="155.2"/>
        <rect style="fill: #1e90ff; fill-opacity: 1; stroke-opacity: 1; stroke-width: 2; stroke: #000000" x="445.1" y="129.2" width="72.35" height="36"/>
        <text font-size="12.8" style="fill: #000000; fill-opacity: 1; stroke: none;text-anchor:middle;font-family:sans-serif;font-style:normal;font-weight:normal" x="481.275" y="151.1">
          <tspan x="481.275" y="151.1">object B</tspan>
        </text>
        <line style="fill: none; stroke-opacity: 1; stroke-width: 1; stroke: #000000" x1="455.1" y1="154.15" x2="507.45" y2="154.15"/>
      </g>
      <rect style="fill: #00ff00; fill-opacity: 1; stroke-opacity: 1; stroke-width: 2; stroke: #000000" x="228" y="199.2" width="350" height="270" rx="0" ry="0"/>
      <g>
        <polygon style="fill: #00ff00; fill-opacity: 1; stroke-opacity: 1; stroke-width: 2; stroke: #000000" fill-rule="evenodd" points="253.092,299.3 335.465,299.3 320.907,339.3 238.533,339.3 "/>
        <text font-size="12.8" style="fill: #000000; fill-opacity: 1; stroke: none;text-anchor:middle;font-family:sans-serif;font-style:normal;font-weight:normal" x="286.999" y="323.2">
          <tspan x="286.999" y="323.2">Pop</tspan>
        </text>
      </g>
      <g>
        <rect style="fill: #00ff00; fill-opacity: 1; stroke-opacity: 1; stroke-width: 2; stroke: #000000" x="260.299" y="221.3" width="275.4" height="38" rx="0" ry="0"/>
        <text font-size="12.8" style="fill: #000000; fill-opacity: 1; stroke: none;text-anchor:middle;font-family:sans-serif;font-style:normal;font-weight:normal" x="397.999" y="244.2">
          <tspan x="397.999" y="244.2">Reactor::Process&lt;Service&gt; ( Message )</tspan>
        </text>
      </g>
      <g>
        <line style="fill: none; stroke-opacity: 1; stroke-width: 2; stroke: #000000" x1="316.497" y1="298.306" x2="360.948" y2="266.669"/>
        <polygon style="fill: #000000; fill-opacity: 1; stroke-opacity: 1; stroke-width: 2; stroke: #000000" fill-rule="evenodd" points="363.848,270.743 369.096,260.871 358.049,262.596 "/>
      </g>
      <g>
        <polygon style="fill: #00ff00; fill-opacity: 1; stroke-opacity: 1; stroke-width: 2; stroke: #000000" fill-rule="evenodd" points="488.143,299.3 560.416,299.3 545.858,339.3 473.584,339.3 "/>
        <text font-size="12.8" style="fill: #000000; fill-opacity: 1; stroke: none;text-anchor:middle;font-family:sans-serif;font-style:normal;font-weight:normal" x="517" y="323.2">
          <tspan x="517" y="323.2">Post</tspan>
        </text>
      </g>
      <g>
        <polygon style="fill: #00ff00; fill-opacity: 1; stroke-opacity: 1; stroke-width: 2; stroke: #000000" fill-rule="evenodd" points="398.932,291.3 437.863,318.516 398.932,345.732 360,318.516 "/>
        <text font-size="12.8" style="fill: #000000; fill-opacity: 1; stroke: none;text-anchor:middle;font-family:sans-serif;font-style:normal;font-weight:normal" x="398.932" y="322.416">
          <tspan x="398.932" y="322.416">?</tspan>
        </text>
      </g>
      <g>
        <line style="fill: none; stroke-opacity: 1; stroke-width: 2; stroke: #000000" x1="398.237" y1="260.236" x2="398.467" y2="279.541"/>
        <polygon style="fill: #000000; fill-opacity: 1; stroke-opacity: 1; stroke-width: 2; stroke: #000000" fill-rule="evenodd" points="393.467,279.601 398.586,289.541 403.467,279.482 "/>
      </g>
      <g>
        <line style="fill: none; stroke-opacity: 1; stroke-width: 2; stroke: #000000" x1="438.864" y1="318.782" x2="469.336" y2="318.984"/>
        <polygon style="fill: #000000; fill-opacity: 1; stroke-opacity: 1; stroke-width: 2; stroke: #000000" fill-rule="evenodd" points="469.303,323.984 479.336,319.05 469.369,313.984 "/>
      </g>
      <g>
        <line style="fill: none; stroke-opacity: 1; stroke-width: 2; stroke: #000000" x1="359" y1="318.796" x2="339.923" y2="318.93"/>
        <polygon style="fill: #000000; fill-opacity: 1; stroke-opacity: 1; stroke-width: 2; stroke: #000000" fill-rule="evenodd" points="339.888,313.93 329.923,319 339.958,323.929 "/>
      </g>
      <line style="fill: none; stroke-opacity: 1; stroke-width: 2; stroke: #000000" x1="346.097" y1="413.144" x2="365.003" y2="401.206"/>
      <line style="fill: none; stroke-opacity: 1; stroke-width: 2; stroke: #000000" x1="397.532" y1="413.144" x2="396.593" y2="401.206"/>
      <line style="fill: none; stroke-opacity: 1; stroke-width: 2; stroke: #000000" x1="450.008" y1="412.142" x2="429.867" y2="401.158"/>
      <g>
        <rect style="fill: #1e90ff; fill-opacity: 1; stroke-opacity: 1; stroke-width: 2; stroke: #000000" x="346.1" y="364.2" width="98" height="36"/>
        <text font-size="12.8" style="fill: #000000; fill-opacity: 1; stroke: none;text-anchor:middle;font-family:sans-serif;font-style:normal;font-weight:normal" x="395.1" y="386.1">
          <tspan x="395.1" y="386.1">root context</tspan>
        </text>
        <line style="fill: none; stroke-opacity: 1; stroke-width: 1; stroke: #000000" x1="356.1" y1="389.15" x2="434.1" y2="389.15"/>
        <rect style="fill: #1e90ff; fill-opacity: 1; stroke-opacity: 1; stroke-width: 2; stroke: #000000" x="362.85" y="414.15" width="72.35" height="36"/>
        <text font-size="12.8" style="fill: #000000; fill-opacity: 1; stroke: none;text-anchor:middle;font-family:sans-serif;font-style:normal;font-weight:normal" x="399.025" y="436.05">
          <tspan x="399.025" y="436.05">object B</tspan>
        </text>
        <line style="fill: none; stroke-opacity: 1; stroke-width: 1; stroke: #000000" x1="372.85" y1="439.1" x2="425.2" y2="439.1"/>
        <rect style="fill: #1e90ff; fill-opacity: 1; stroke-opacity: 1; stroke-width: 2; stroke: #000000" x="279.85" y="414.15" width="72.3" height="36"/>
        <text font-size="12.8" style="fill: #000000; fill-opacity: 1; stroke: none;text-anchor:middle;font-family:sans-serif;font-style:normal;font-weight:normal" x="316" y="436.05">
          <tspan x="316" y="436.05">object A</tspan>
        </text>
        <line style="fill: none; stroke-opacity: 1; stroke-width: 1; stroke: #000000" x1="289.85" y1="439.1" x2="342.15" y2="439.1"/>
        <rect style="fill: #1e90ff; fill-opacity: 1; stroke-opacity: 1; stroke-width: 2; stroke: #000000" x="448.6" y="413.1" width="72.35" height="36"/>
        <text font-size="12.8" style="fill: #000000; fill-opacity: 1; stroke: none;text-anchor:middle;font-family:sans-serif;font-style:normal;font-weight:normal" x="484.775" y="435">
          <tspan x="484.775" y="435">object B</tspan>
        </text>
        <line style="fill: none; stroke-opacity: 1; stroke-width: 1; stroke: #000000" x1="458.6" y1="438.05" x2="510.95" y2="438.05"/>
      </g>
      <rect style="fill: #00ff00; fill-opacity: 1; stroke-opacity: 1; stroke-width: 2; stroke: #000000" x="229.5" y="479.1" width="350" height="270" rx="0" ry="0"/>
      <g>
        <polygon style="fill: #00ff00; fill-opacity: 1; stroke-opacity: 1; stroke-width: 2; stroke: #000000" fill-rule="evenodd" points="254.592,579.2 336.965,579.2 322.407,619.2 240.033,619.2 "/>
        <text font-size="12.8" style="fill: #000000; fill-opacity: 1; stroke: none;text-anchor:middle;font-family:sans-serif;font-style:normal;font-weight:normal" x="288.499" y="603.1">
          <tspan x="288.499" y="603.1">Pop</tspan>
        </text>
      </g>
      <g>
        <rect style="fill: #00ff00; fill-opacity: 1; stroke-opacity: 1; stroke-width: 2; stroke: #000000" x="261.799" y="501.2" width="275.4" height="38" rx="0" ry="0"/>
        <text font-size="12.8" style="fill: #000000; fill-opacity: 1; stroke: none;text-anchor:middle;font-family:sans-serif;font-style:normal;font-weight:normal" x="399.499" y="524.1">
          <tspan x="399.499" y="524.1">Reactor::Process&lt;Service&gt; ( Message )</tspan>
        </text>
      </g>
      <g>
        <line style="fill: none; stroke-opacity: 1; stroke-width: 2; stroke: #000000" x1="317.997" y1="578.206" x2="362.448" y2="546.569"/>
        <polygon style="fill: #000000; fill-opacity: 1; stroke-opacity: 1; stroke-width: 2; stroke: #000000" fill-rule="evenodd" points="365.348,550.643 370.596,540.771 359.549,542.496 "/>
      </g>
      <g>
        <polygon style="fill: #00ff00; fill-opacity: 1; stroke-opacity: 1; stroke-width: 2; stroke: #000000" fill-rule="evenodd" points="489.643,579.2 561.916,579.2 547.358,619.2 475.084,619.2 "/>
        <text font-size="12.8" style="fill: #000000; fill-opacity: 1; stroke: none;text-anchor:middle;font-family:sans-serif;font-style:normal;font-weight:normal" x="518.5" y="603.1">
          <tspan x="518.5" y="603.1">Post</tspan>
        </text>
      </g>
      <g>
        <polygon style="fill: #00ff00; fill-opacity: 1; stroke-opacity: 1; stroke-width: 2; stroke: #000000" fill-rule="evenodd" points="400.432,571.2 439.363,598.416 400.432,625.632 361.5,598.416 "/>
        <text font-size="12.8" style="fill: #000000; fill-opacity: 1; stroke: none;text-anchor:middle;font-family:sans-serif;font-style:normal;font-weight:normal" x="400.432" y="602.316">
          <tspan x="400.432" y="602.316">?</tspan>
        </text>
      </g>
      <g>
        <line style="fill: none; stroke-opacity: 1; stroke-width: 2; stroke: #000000" x1="399.737" y1="540.136" x2="399.967" y2="559.441"/>
        <polygon style="fill: #000000; fill-opacity: 1; stroke-opacity: 1; stroke-width: 2; stroke: #000000" fill-rule="evenodd" points="394.967,559.501 400.086,569.441 404.967,559.382 "/>
      </g>
      <g>
        <line style="fill: none; stroke-opacity: 1; stroke-width: 2; stroke: #000000" x1="440.364" y1="598.682" x2="470.836" y2="598.884"/>
        <polygon style="fill: #000000; fill-opacity: 1; stroke-opacity: 1; stroke-width: 2; stroke: #000000" fill-rule="evenodd" points="470.803,603.884 480.836,598.95 470.869,593.884 "/>
      </g>
      <g>
        <line style="fill: none; stroke-opacity: 1; stroke-width: 2; stroke: #000000" x1="360.5" y1="598.696" x2="341.423" y2="598.83"/>
        <polygon style="fill: #000000; fill-opacity: 1; stroke-opacity: 1; stroke-width: 2; stroke: #000000" fill-rule="evenodd" points="341.388,593.83 331.423,598.9 341.458,603.829 "/>
      </g>
      <line style="fill: none; stroke-opacity: 1; stroke-width: 2; stroke: #000000" x1="347.597" y1="693.044" x2="366.503" y2="681.106"/>
      <line style="fill: none; stroke-opacity: 1; stroke-width: 2; stroke: #000000" x1="399.032" y1="693.044" x2="398.093" y2="681.106"/>
      <line style="fill: none; stroke-opacity: 1; stroke-width: 2; stroke: #000000" x1="451.508" y1="692.042" x2="431.367" y2="681.058"/>
      <g>
        <rect style="fill: #1e90ff; fill-opacity: 1; stroke-opacity: 1; stroke-width: 2; stroke: #000000" x="347.6" y="644.1" width="98" height="36"/>
        <text font-size="12.8" style="fill: #000000; fill-opacity: 1; stroke: none;text-anchor:middle;font-family:sans-serif;font-style:normal;font-weight:normal" x="396.6" y="666">
          <tspan x="396.6" y="666">root context</tspan>
        </text>
        <line style="fill: none; stroke-opacity: 1; stroke-width: 1; stroke: #000000" x1="357.6" y1="669.05" x2="435.6" y2="669.05"/>
        <rect style="fill: #1e90ff; fill-opacity: 1; stroke-opacity: 1; stroke-width: 2; stroke: #000000" x="364.35" y="694.05" width="72.35" height="36"/>
        <text font-size="12.8" style="fill: #000000; fill-opacity: 1; stroke: none;text-anchor:middle;font-family:sans-serif;font-style:normal;font-weight:normal" x="400.525" y="715.95">
          <tspan x="400.525" y="715.95">object B</tspan>
        </text>
        <line style="fill: none; stroke-opacity: 1; stroke-width: 1; stroke: #000000" x1="374.35" y1="719" x2="426.7" y2="719"/>
        <rect style="fill: #1e90ff; fill-opacity: 1; stroke-opacity: 1; stroke-width: 2; stroke: #000000" x="281.35" y="694.05" width="72.3" height="36"/>
        <text font-size="12.8" style="fill: #000000; fill-opacity: 1; stroke: none;text-anchor:middle;font-family:sans-serif;font-style:normal;font-weight:normal" x="317.5" y="715.95">
          <tspan x="317.5" y="715.95">object A</tspan>
        </text>
        <line style="fill: none; stroke-opacity: 1; stroke-width: 1; stroke: #000000" x1="291.35" y1="719" x2="343.65" y2="719"/>
        <rect style="fill: #1e90ff; fill-opacity: 1; stroke-opacity: 1; stroke-width: 2; stroke: #000000" x="450.1" y="693" width="72.35" height="36"/>
        <text font-size="12.8" style="fill: #000000; fill-opacity: 1; stroke: none;text-anchor:middle;font-family:sans-serif;font-style:normal;font-weight:normal" x="486.275" y="714.9">
          <tspan x="486.275" y="714.9">object B</tspan>
        </text>
        <line style="fill: none; stroke-opacity: 1; stroke-width: 1; stroke: #000000" x1="460.1" y1="717.95" x2="512.45" y2="717.95"/>
      </g>
    </g>
    <g>
      <rect style="fill: #ffa500; fill-opacity: 1; stroke-opacity: 1; stroke-width: 2; stroke: #000000" x="677.667" y="-195.683" width="477.333" height="977.333" rx="0" ry="0"/>
      <rect style="fill: #ffff00; fill-opacity: 1; stroke-opacity: 1; stroke-width: 2; stroke: #000000" x="727.5" y="-143.1" width="400" height="901.75" rx="0" ry="0"/>
      <polygon style="fill: #ffffff; fill-opacity: 1; stroke-opacity: 1; stroke-width: 2; stroke: #000000" fill-rule="evenodd" points="749.5,-130.1 1032.7,-130.1 1044.7,-118.1 1044.7,-96.1 749.5,-96.1 "/>
      <polyline style="fill: none; stroke-opacity: 1; stroke-width: 1; stroke: #000000" points="1032.7,-130.1 1032.7,-118.1 1044.7,-118.1 "/>
      <text font-size="12.8" style="fill: #000000; fill-opacity: 1; stroke: none;text-anchor:start;font-family:monospace;font-style:normal;font-weight:normal" x="756.5" y="-105.2">
        <tspan x="756.5" y="-105.2">Posix thread with processor affinity</tspan>
      </text>
      <polygon style="fill: #ffffff; fill-opacity: 1; stroke-opacity: 1; stroke-width: 2; stroke: #000000" fill-rule="evenodd" points="708.333,-185.017 768.233,-185.017 780.233,-173.017 780.233,-151.017 708.333,-151.017 "/>
      <polyline style="fill: none; stroke-opacity: 1; stroke-width: 1; stroke: #000000" points="768.233,-185.017 768.233,-173.017 780.233,-173.017 "/>
      <text font-size="12.8" style="fill: #000000; fill-opacity: 1; stroke: none;text-anchor:start;font-family:monospace;font-style:normal;font-weight:normal" x="715.333" y="-160.117">
        <tspan x="715.333" y="-160.117">Process</tspan>
      </text>
      <rect style="fill: #00ff00; fill-opacity: 1; stroke-opacity: 1; stroke-width: 2; stroke: #000000" x="750" y="-84.8" width="350" height="270" rx="0" ry="0"/>
      <g>
        <polygon style="fill: #00ff00; fill-opacity: 1; stroke-opacity: 1; stroke-width: 2; stroke: #000000" fill-rule="evenodd" points="775.092,15.3 857.465,15.3 842.907,55.3 760.533,55.3 "/>
        <text font-size="12.8" style="fill: #000000; fill-opacity: 1; stroke: none;text-anchor:middle;font-family:sans-serif;font-style:normal;font-weight:normal" x="808.999" y="39.2">
          <tspan x="808.999" y="39.2">Pop</tspan>
        </text>
      </g>
      <g>
        <rect style="fill: #00ff00; fill-opacity: 1; stroke-opacity: 1; stroke-width: 2; stroke: #000000" x="782.299" y="-62.7" width="275.4" height="38" rx="0" ry="0"/>
        <text font-size="12.8" style="fill: #000000; fill-opacity: 1; stroke: none;text-anchor:middle;font-family:sans-serif;font-style:normal;font-weight:normal" x="919.999" y="-39.8">
          <tspan x="919.999" y="-39.8">Reactor::Process&lt;Service&gt; ( Message )</tspan>
        </text>
      </g>
      <g>
        <line style="fill: none; stroke-opacity: 1; stroke-width: 2; stroke: #000000" x1="838.497" y1="14.306" x2="882.948" y2="-17.3306"/>
        <polygon style="fill: #000000; fill-opacity: 1; stroke-opacity: 1; stroke-width: 2; stroke: #000000" fill-rule="evenodd" points="885.848,-13.257 891.096,-23.1291 880.049,-21.4042 "/>
      </g>
      <g>
        <polygon style="fill: #00ff00; fill-opacity: 1; stroke-opacity: 1; stroke-width: 2; stroke: #000000" fill-rule="evenodd" points="1010.14,15.3 1082.42,15.3 1067.86,55.3 995.584,55.3 "/>
        <text font-size="12.8" style="fill: #000000; fill-opacity: 1; stroke: none;text-anchor:middle;font-family:sans-serif;font-style:normal;font-weight:normal" x="1039" y="39.2">
          <tspan x="1039" y="39.2">Post</tspan>
        </text>
      </g>
      <g>
        <polygon style="fill: #00ff00; fill-opacity: 1; stroke-opacity: 1; stroke-width: 2; stroke: #000000" fill-rule="evenodd" points="920.932,7.3 959.863,34.5158 920.932,61.7316 882,34.5158 "/>
        <text font-size="12.8" style="fill: #000000; fill-opacity: 1; stroke: none;text-anchor:middle;font-family:sans-serif;font-style:normal;font-weight:normal" x="920.932" y="38.4158">
          <tspan x="920.932" y="38.4158">?</tspan>
        </text>
      </g>
      <g>
        <line style="fill: none; stroke-opacity: 1; stroke-width: 2; stroke: #000000" x1="920.237" y1="-23.7641" x2="920.467" y2="-4.45855"/>
        <polygon style="fill: #000000; fill-opacity: 1; stroke-opacity: 1; stroke-width: 2; stroke: #000000" fill-rule="evenodd" points="915.467,-4.39894 920.586,5.54074 925.467,-4.51816 "/>
      </g>
      <g>
        <line style="fill: none; stroke-opacity: 1; stroke-width: 2; stroke: #000000" x1="960.864" y1="34.782" x2="991.336" y2="34.984"/>
        <polygon style="fill: #000000; fill-opacity: 1; stroke-opacity: 1; stroke-width: 2; stroke: #000000" fill-rule="evenodd" points="991.303,39.9839 1001.34,35.0503 991.369,29.9841 "/>
      </g>
      <g>
        <line style="fill: none; stroke-opacity: 1; stroke-width: 2; stroke: #000000" x1="881" y1="34.796" x2="861.923" y2="34.9295"/>
        <polygon style="fill: #000000; fill-opacity: 1; stroke-opacity: 1; stroke-width: 2; stroke: #000000" fill-rule="evenodd" points="861.888,29.9297 851.923,34.9995 861.958,39.9294 "/>
      </g>
      <line style="fill: none; stroke-opacity: 1; stroke-width: 2; stroke: #000000" x1="868.097" y1="129.144" x2="887.003" y2="117.206"/>
      <line style="fill: none; stroke-opacity: 1; stroke-width: 2; stroke: #000000" x1="919.532" y1="129.144" x2="918.593" y2="117.206"/>
      <line style="fill: none; stroke-opacity: 1; stroke-width: 2; stroke: #000000" x1="972.008" y1="128.142" x2="951.867" y2="117.158"/>
      <g>
        <rect style="fill: #1e90ff; fill-opacity: 1; stroke-opacity: 1; stroke-width: 2; stroke: #000000" x="868.1" y="80.2" width="98" height="36"/>
        <text font-size="12.8" style="fill: #000000; fill-opacity: 1; stroke: none;text-anchor:middle;font-family:sans-serif;font-style:normal;font-weight:normal" x="917.1" y="102.1">
          <tspan x="917.1" y="102.1">root context</tspan>
        </text>
        <line style="fill: none; stroke-opacity: 1; stroke-width: 1; stroke: #000000" x1="878.1" y1="105.15" x2="956.1" y2="105.15"/>
        <rect style="fill: #1e90ff; fill-opacity: 1; stroke-opacity: 1; stroke-width: 2; stroke: #000000" x="884.85" y="130.15" width="72.35" height="36"/>
        <text font-size="12.8" style="fill: #000000; fill-opacity: 1; stroke: none;text-anchor:middle;font-family:sans-serif;font-style:normal;font-weight:normal" x="921.025" y="152.05">
          <tspan x="921.025" y="152.05">object B</tspan>
        </text>
        <line style="fill: none; stroke-opacity: 1; stroke-width: 1; stroke: #000000" x1="894.85" y1="155.1" x2="947.2" y2="155.1"/>
        <rect style="fill: #1e90ff; fill-opacity: 1; stroke-opacity: 1; stroke-width: 2; stroke: #000000" x="801.85" y="130.15" width="72.3" height="36"/>
        <text font-size="12.8" style="fill: #000000; fill-opacity: 1; stroke: none;text-anchor:middle;font-family:sans-serif;font-style:normal;font-weight:normal" x="838" y="152.05">
          <tspan x="838" y="152.05">object A</tspan>
        </text>
        <line style="fill: none; stroke-opacity: 1; stroke-width: 1; stroke: #000000" x1="811.85" y1="155.1" x2="864.15" y2="155.1"/>
        <rect style="fill: #1e90ff; fill-opacity: 1; stroke-opacity: 1; stroke-width: 2; stroke: #000000" x="970.6" y="129.1" width="72.35" height="36"/>
        <text font-size="12.8" style="fill: #000000; fill-opacity: 1; stroke: none;text-anchor:middle;font-family:sans-serif;font-style:normal;font-weight:normal" x="1006.77" y="151">
          <tspan x="1006.77" y="151">object B</tspan>
        </text>
        <line style="fill: none; stroke-opacity: 1; stroke-width: 1; stroke: #000000" x1="980.6" y1="154.05" x2="1032.95" y2="154.05"/>
      </g>
      <rect style="fill: #00ff00; fill-opacity: 1; stroke-opacity: 1; stroke-width: 2; stroke: #000000" x="753.5" y="199.1" width="350" height="270" rx="0" ry="0"/>
      <g>
        <polygon style="fill: #00ff00; fill-opacity: 1; stroke-opacity: 1; stroke-width: 2; stroke: #000000" fill-rule="evenodd" points="778.592,299.2 860.965,299.2 846.407,339.2 764.033,339.2 "/>
        <text font-size="12.8" style="fill: #000000; fill-opacity: 1; stroke: none;text-anchor:middle;font-family:sans-serif;font-style:normal;font-weight:normal" x="812.499" y="323.1">
          <tspan x="812.499" y="323.1">Pop</tspan>
        </text>
      </g>
      <g>
        <rect style="fill: #00ff00; fill-opacity: 1; stroke-opacity: 1; stroke-width: 2; stroke: #000000" x="785.799" y="221.2" width="275.4" height="38" rx="0" ry="0"/>
        <text font-size="12.8" style="fill: #000000; fill-opacity: 1; stroke: none;text-anchor:middle;font-family:sans-serif;font-style:normal;font-weight:normal" x="923.499" y="244.1">
          <tspan x="923.499" y="244.1">Reactor::Process&lt;Service&gt; ( Message )</tspan>
        </text>
      </g>
      <g>
        <line style="fill: none; stroke-opacity: 1; stroke-width: 2; stroke: #000000" x1="841.997" y1="298.206" x2="886.448" y2="266.569"/>
        <polygon style="fill: #000000; fill-opacity: 1; stroke-opacity: 1; stroke-width: 2; stroke: #000000" fill-rule="evenodd" points="889.348,270.643 894.596,260.771 883.549,262.496 "/>
      </g>
      <g>
        <polygon style="fill: #00ff00; fill-opacity: 1; stroke-opacity: 1; stroke-width: 2; stroke: #000000" fill-rule="evenodd" points="1013.64,299.2 1085.92,299.2 1071.36,339.2 999.084,339.2 "/>
        <text font-size="12.8" style="fill: #000000; fill-opacity: 1; stroke: none;text-anchor:middle;font-family:sans-serif;font-style:normal;font-weight:normal" x="1042.5" y="323.1">
          <tspan x="1042.5" y="323.1">Post</tspan>
        </text>
      </g>
      <g>
        <polygon style="fill: #00ff00; fill-opacity: 1; stroke-opacity: 1; stroke-width: 2; stroke: #000000" fill-rule="evenodd" points="924.432,291.2 963.363,318.416 924.432,345.632 885.5,318.416 "/>
        <text font-size="12.8" style="fill: #000000; fill-opacity: 1; stroke: none;text-anchor:middle;font-family:sans-serif;font-style:normal;font-weight:normal" x="924.432" y="322.316">
          <tspan x="924.432" y="322.316">?</tspan>
        </text>
      </g>
      <g>
        <line style="fill: none; stroke-opacity: 1; stroke-width: 2; stroke: #000000" x1="923.737" y1="260.136" x2="923.967" y2="279.441"/>
        <polygon style="fill: #000000; fill-opacity: 1; stroke-opacity: 1; stroke-width: 2; stroke: #000000" fill-rule="evenodd" points="918.967,279.501 924.086,289.441 928.967,279.382 "/>
      </g>
      <g>
        <line style="fill: none; stroke-opacity: 1; stroke-width: 2; stroke: #000000" x1="964.364" y1="318.682" x2="994.836" y2="318.884"/>
        <polygon style="fill: #000000; fill-opacity: 1; stroke-opacity: 1; stroke-width: 2; stroke: #000000" fill-rule="evenodd" points="994.803,323.884 1004.84,318.95 994.869,313.884 "/>
      </g>
      <g>
        <line style="fill: none; stroke-opacity: 1; stroke-width: 2; stroke: #000000" x1="884.5" y1="318.696" x2="865.423" y2="318.83"/>
        <polygon style="fill: #000000; fill-opacity: 1; stroke-opacity: 1; stroke-width: 2; stroke: #000000" fill-rule="evenodd" points="865.388,313.83 855.423,318.9 865.458,323.829 "/>
      </g>
      <line style="fill: none; stroke-opacity: 1; stroke-width: 2; stroke: #000000" x1="871.597" y1="413.044" x2="890.503" y2="401.106"/>
      <line style="fill: none; stroke-opacity: 1; stroke-width: 2; stroke: #000000" x1="923.032" y1="413.044" x2="922.093" y2="401.106"/>
      <line style="fill: none; stroke-opacity: 1; stroke-width: 2; stroke: #000000" x1="975.508" y1="412.042" x2="955.367" y2="401.058"/>
      <g>
        <rect style="fill: #1e90ff; fill-opacity: 1; stroke-opacity: 1; stroke-width: 2; stroke: #000000" x="871.6" y="364.1" width="98" height="36"/>
        <text font-size="12.8" style="fill: #000000; fill-opacity: 1; stroke: none;text-anchor:middle;font-family:sans-serif;font-style:normal;font-weight:normal" x="920.6" y="386">
          <tspan x="920.6" y="386">root context</tspan>
        </text>
        <line style="fill: none; stroke-opacity: 1; stroke-width: 1; stroke: #000000" x1="881.6" y1="389.05" x2="959.6" y2="389.05"/>
        <rect style="fill: #1e90ff; fill-opacity: 1; stroke-opacity: 1; stroke-width: 2; stroke: #000000" x="888.35" y="414.05" width="72.35" height="36"/>
        <text font-size="12.8" style="fill: #000000; fill-opacity: 1; stroke: none;text-anchor:middle;font-family:sans-serif;font-style:normal;font-weight:normal" x="924.525" y="435.95">
          <tspan x="924.525" y="435.95">object B</tspan>
        </text>
        <line style="fill: none; stroke-opacity: 1; stroke-width: 1; stroke: #000000" x1="898.35" y1="439" x2="950.7" y2="439"/>
        <rect style="fill: #1e90ff; fill-opacity: 1; stroke-opacity: 1; stroke-width: 2; stroke: #000000" x="805.35" y="414.05" width="72.3" height="36"/>
        <text font-size="12.8" style="fill: #000000; fill-opacity: 1; stroke: none;text-anchor:middle;font-family:sans-serif;font-style:normal;font-weight:normal" x="841.5" y="435.95">
          <tspan x="841.5" y="435.95">object A</tspan>
        </text>
        <line style="fill: none; stroke-opacity: 1; stroke-width: 1; stroke: #000000" x1="815.35" y1="439" x2="867.65" y2="439"/>
        <rect style="fill: #1e90ff; fill-opacity: 1; stroke-opacity: 1; stroke-width: 2; stroke: #000000" x="974.1" y="413" width="72.35" height="36"/>
        <text font-size="12.8" style="fill: #000000; fill-opacity: 1; stroke: none;text-anchor:middle;font-family:sans-serif;font-style:normal;font-weight:normal" x="1010.28" y="434.9">
          <tspan x="1010.28" y="434.9">object B</tspan>
        </text>
        <line style="fill: none; stroke-opacity: 1; stroke-width: 1; stroke: #000000" x1="984.1" y1="437.95" x2="1036.45" y2="437.95"/>
      </g>
      <rect style="fill: #00ff00; fill-opacity: 1; stroke-opacity: 1; stroke-width: 2; stroke: #000000" x="755" y="479" width="350" height="270" rx="0" ry="0"/>
      <g>
        <polygon style="fill: #00ff00; fill-opacity: 1; stroke-opacity: 1; stroke-width: 2; stroke: #000000" fill-rule="evenodd" points="780.092,579.1 862.465,579.1 847.907,619.1 765.533,619.1 "/>
        <text font-size="12.8" style="fill: #000000; fill-opacity: 1; stroke: none;text-anchor:middle;font-family:sans-serif;font-style:normal;font-weight:normal" x="813.999" y="603">
          <tspan x="813.999" y="603">Pop</tspan>
        </text>
      </g>
      <g>
        <rect style="fill: #00ff00; fill-opacity: 1; stroke-opacity: 1; stroke-width: 2; stroke: #000000" x="787.299" y="501.1" width="275.4" height="38" rx="0" ry="0"/>
        <text font-size="12.8" style="fill: #000000; fill-opacity: 1; stroke: none;text-anchor:middle;font-family:sans-serif;font-style:normal;font-weight:normal" x="924.999" y="524">
          <tspan x="924.999" y="524">Reactor::Process&lt;Service&gt; ( Message )</tspan>
        </text>
      </g>
      <g>
        <line style="fill: none; stroke-opacity: 1; stroke-width: 2; stroke: #000000" x1="843.497" y1="578.106" x2="887.948" y2="546.469"/>
        <polygon style="fill: #000000; fill-opacity: 1; stroke-opacity: 1; stroke-width: 2; stroke: #000000" fill-rule="evenodd" points="890.848,550.543 896.096,540.671 885.049,542.396 "/>
      </g>
      <g>
        <polygon style="fill: #00ff00; fill-opacity: 1; stroke-opacity: 1; stroke-width: 2; stroke: #000000" fill-rule="evenodd" points="1015.14,579.1 1087.42,579.1 1072.86,619.1 1000.58,619.1 "/>
        <text font-size="12.8" style="fill: #000000; fill-opacity: 1; stroke: none;text-anchor:middle;font-family:sans-serif;font-style:normal;font-weight:normal" x="1044" y="603">
          <tspan x="1044" y="603">Post</tspan>
        </text>
      </g>
      <g>
        <polygon style="fill: #00ff00; fill-opacity: 1; stroke-opacity: 1; stroke-width: 2; stroke: #000000" fill-rule="evenodd" points="925.932,571.1 964.863,598.316 925.932,625.532 887,598.316 "/>
        <text font-size="12.8" style="fill: #000000; fill-opacity: 1; stroke: none;text-anchor:middle;font-family:sans-serif;font-style:normal;font-weight:normal" x="925.932" y="602.216">
          <tspan x="925.932" y="602.216">?</tspan>
        </text>
      </g>
      <g>
        <line style="fill: none; stroke-opacity: 1; stroke-width: 2; stroke: #000000" x1="925.237" y1="540.036" x2="925.467" y2="559.341"/>
        <polygon style="fill: #000000; fill-opacity: 1; stroke-opacity: 1; stroke-width: 2; stroke: #000000" fill-rule="evenodd" points="920.467,559.401 925.586,569.341 930.467,559.282 "/>
      </g>
      <g>
        <line style="fill: none; stroke-opacity: 1; stroke-width: 2; stroke: #000000" x1="965.864" y1="598.582" x2="996.336" y2="598.784"/>
        <polygon style="fill: #000000; fill-opacity: 1; stroke-opacity: 1; stroke-width: 2; stroke: #000000" fill-rule="evenodd" points="996.303,603.784 1006.34,598.85 996.369,593.784 "/>
      </g>
      <g>
        <line style="fill: none; stroke-opacity: 1; stroke-width: 2; stroke: #000000" x1="886" y1="598.596" x2="866.923" y2="598.73"/>
        <polygon style="fill: #000000; fill-opacity: 1; stroke-opacity: 1; stroke-width: 2; stroke: #000000" fill-rule="evenodd" points="866.888,593.73 856.923,598.8 866.958,603.729 "/>
      </g>
      <line style="fill: none; stroke-opacity: 1; stroke-width: 2; stroke: #000000" x1="873.097" y1="692.944" x2="892.003" y2="681.006"/>
      <line style="fill: none; stroke-opacity: 1; stroke-width: 2; stroke: #000000" x1="924.532" y1="692.944" x2="923.593" y2="681.006"/>
      <line style="fill: none; stroke-opacity: 1; stroke-width: 2; stroke: #000000" x1="977.008" y1="691.942" x2="956.867" y2="680.958"/>
      <g>
        <rect style="fill: #1e90ff; fill-opacity: 1; stroke-opacity: 1; stroke-width: 2; stroke: #000000" x="873.1" y="644" width="98" height="36"/>
        <text font-size="12.8" style="fill: #000000; fill-opacity: 1; stroke: none;text-anchor:middle;font-family:sans-serif;font-style:normal;font-weight:normal" x="922.1" y="665.9">
          <tspan x="922.1" y="665.9">root context</tspan>
        </text>
        <line style="fill: none; stroke-opacity: 1; stroke-width: 1; stroke: #000000" x1="883.1" y1="668.95" x2="961.1" y2="668.95"/>
        <rect style="fill: #1e90ff; fill-opacity: 1; stroke-opacity: 1; stroke-width: 2; stroke: #000000" x="889.85" y="693.95" width="72.35" height="36"/>
        <text font-size="12.8" style="fill: #000000; fill-opacity: 1; stroke: none;text-anchor:middle;font-family:sans-serif;font-style:normal;font-weight:normal" x="926.025" y="715.85">
          <tspan x="926.025" y="715.85">object B</tspan>
        </text>
        <line style="fill: none; stroke-opacity: 1; stroke-width: 1; stroke: #000000" x1="899.85" y1="718.9" x2="952.2" y2="718.9"/>
        <rect style="fill: #1e90ff; fill-opacity: 1; stroke-opacity: 1; stroke-width: 2; stroke: #000000" x="806.85" y="693.95" width="72.3" height="36"/>
        <text font-size="12.8" style="fill: #000000; fill-opacity: 1; stroke: none;text-anchor:middle;font-family:sans-serif;font-style:normal;font-weight:normal" x="843" y="715.85">
          <tspan x="843" y="715.85">object A</tspan>
        </text>
        <line style="fill: none; stroke-opacity: 1; stroke-width: 1; stroke: #000000" x1="816.85" y1="718.9" x2="869.15" y2="718.9"/>
        <rect style="fill: #1e90ff; fill-opacity: 1; stroke-opacity: 1; stroke-width: 2; stroke: #000000" x="975.6" y="692.9" width="72.35" height="36"/>
        <text font-size="12.8" style="fill: #000000; fill-opacity: 1; stroke: none;text-anchor:middle;font-family:sans-serif;font-style:normal;font-weight:normal" x="1011.77" y="714.8">
          <tspan x="1011.77" y="714.8">object B</tspan>
        </text>
        <line style="fill: none; stroke-opacity: 1; stroke-width: 1; stroke: #000000" x1="985.6" y1="717.85" x2="1037.95" y2="717.85"/>
      </g>
    </g>
  </g>
</svg>
